<svg width="611" height="427" viewBox="0 0 611 427" fill="none" xmlns="http://www.w3.org/2000/svg">
<circle opacity="0.2" cx="273.5" cy="176.5" r="176.5" fill="#EDC261"/>
<path opacity="0.5" d="M425.012 266.947C360.386 264.991 364.303 102.648 425.012 87C489.638 87 534.68 145.678 530.763 180.885C526.846 216.093 489.638 268.903 425.012 266.947Z" fill="#FE93CF"/>
<path opacity="0.1" d="M390.214 398.223C114.214 436.223 -5.78612 367.223 0.213882 328.223C33.2139 204.223 177.214 360.223 375.214 253.223C573.214 146.223 642.214 215.223 649.214 237.223C656.214 259.223 666.214 360.223 390.214 398.223Z" fill="#276CE5"/>
<path fill-rule="evenodd" clip-rule="evenodd" d="M179.751 192.609C174.755 187.374 170.63 180.791 169.183 173.148C165.014 151.128 189.745 153.979 197.029 164.659C204.314 175.339 210.627 203.449 205.189 205.922C203.02 206.908 197.518 205.397 191.422 201.828L201.832 231.014L182.857 232.602L179.751 192.609Z" fill="#B28B67"/>
<path fill-rule="evenodd" clip-rule="evenodd" d="M187.192 174.673C190.987 187.822 194.597 194.242 198.021 193.933C203.156 193.47 206.634 189.199 208.888 188.996C210.53 188.848 210.718 191.326 210.04 193.237C209.481 194.814 205.433 196.65 205.959 198.969C206.485 201.287 209.534 199.182 209.846 200.557C210.362 202.832 211.939 207.054 208.62 207.353C205.261 207.656 195.299 207.069 192.304 201.288C190.371 197.557 187.884 189.688 184.843 177.682C184.632 177.672 184.422 177.675 184.211 177.694C181.333 177.954 179.629 180.94 180.405 184.363C180.799 186.101 181.757 187.618 182.981 188.656C182.234 190.789 181.362 193.026 180.308 195.348C173.549 191.721 166.477 179.957 169.517 167.769C169.792 161.908 172.659 158.532 176.54 156.734C179.561 154.733 183.053 154.223 186.267 154.97C192.251 155.039 197.955 156.689 199.72 157.815C201.214 164.402 200.584 166.453 191.381 167.107C189.449 168.725 188.271 171.317 187.192 174.673Z" fill="#191847"/>
<path fill-rule="evenodd" clip-rule="evenodd" d="M276.387 304.344C282.229 296.422 296.831 301.666 296.823 308.225C296.799 325.446 281.084 407.201 280.264 412.363C279.443 417.524 270.653 419.213 270.141 412.764C269.327 402.501 267.814 366.927 269.328 350.377C269.77 345.542 270.236 340.87 270.706 336.492C262.447 351.33 249.887 372.302 233.028 399.408L223.658 395.127C231.016 370.884 237.05 353.769 241.759 343.782C249.821 326.682 257.382 312.038 260.564 306.88C264.767 300.066 271.584 300.971 276.387 304.344Z" fill="#B28B67"/>
<path fill-rule="evenodd" clip-rule="evenodd" d="M224.328 381.664L256.489 305.477C264.193 293.083 285.795 307.999 283.167 315.187C277.202 331.506 246.865 384.34 245.088 389.202L224.328 381.664Z" fill="#1F28CF"/>
<path fill-rule="evenodd" clip-rule="evenodd" d="M297.636 314.174C297.636 335.769 288.171 386.53 288.164 391.285L265.234 390.512C269.242 346.378 270.933 324.162 270.305 323.863C268.893 323.19 212.418 331.679 195.48 332.32C171.056 333.244 160.952 318.26 160.132 289.825H207.443C247.898 294.654 274.487 298.013 287.209 299.901C295.379 301.114 297.636 308.225 297.636 314.174Z" fill="#2B44FF"/>
<path fill-rule="evenodd" clip-rule="evenodd" d="M248.232 376.744L253.072 377.726C259.502 379.03 262.877 386.083 260.61 393.48L258.558 400.176C256.291 407.573 249.24 412.512 242.81 411.207L237.97 410.226C231.54 408.921 228.165 401.868 230.432 394.471L232.484 387.775C234.751 380.379 241.802 375.44 248.232 376.744ZM242.54 383.62C240.932 383.294 239.17 384.528 238.603 386.378L235.028 398.042C234.461 399.891 235.305 401.655 236.913 401.981L248.502 404.332C250.11 404.658 251.872 403.423 252.439 401.574L256.014 389.909C256.581 388.06 255.737 386.297 254.129 385.971L242.54 383.62Z" fill="#C5CFD6"/>
<path fill-rule="evenodd" clip-rule="evenodd" d="M268.897 400.603C267.987 403.032 267.532 404.851 267.532 406.057C267.532 407.524 267.776 409.665 268.265 412.48C269.967 412.48 285.264 412.48 314.156 412.48C315.348 408.538 314.66 406.409 312.09 406.095C309.521 405.78 307.387 405.497 305.687 405.243L284.358 395.735C283.947 395.552 283.466 395.736 283.283 396.146C283.28 396.153 283.277 396.16 283.274 396.168L281.903 399.493C279.525 400.603 277.592 401.158 276.105 401.158C274.897 401.158 273.228 400.67 271.099 399.694L271.099 399.694C270.282 399.32 269.316 399.678 268.942 400.495C268.926 400.53 268.911 400.566 268.897 400.603Z" fill="#E4E4E4"/>
<path d="M308.62 412.48H271.193C269.62 412.48 268.345 413.755 268.345 415.328C268.345 416.901 269.62 418.175 271.193 418.175H308.62C310.193 418.175 311.468 416.901 311.468 415.328C311.468 413.755 310.193 412.48 308.62 412.48Z" fill="#2F3676"/>
<path fill-rule="evenodd" clip-rule="evenodd" d="M157.691 294.503H244.75C249.244 294.503 252.886 298.146 252.886 302.639V342.507H152.809C151.012 342.507 149.555 341.05 149.555 339.253V302.639C149.555 298.146 153.197 294.503 157.691 294.503Z" fill="#2F3676"/>
<path fill-rule="evenodd" clip-rule="evenodd" d="M244.75 294.503H246.535C250.52 294.503 253.918 297.389 254.564 301.321L272.414 410.039H263.719" fill="#2F3676"/>
<path d="M268.345 426.312C276.434 426.312 282.991 419.755 282.991 411.666C282.991 403.578 276.434 397.021 268.345 397.021C260.257 397.021 253.7 403.578 253.7 411.666C253.7 419.755 260.257 426.312 268.345 426.312Z" fill="#191847"/>
<path fill-rule="evenodd" clip-rule="evenodd" d="M160.132 424.685C125.981 424.685 98.2957 397 98.2957 362.848C98.2957 328.697 125.981 301.012 160.132 301.012C194.283 301.012 221.968 328.697 221.968 362.848C221.968 397 194.283 424.685 160.132 424.685ZM160.132 413.294C187.992 413.294 210.577 390.709 210.577 362.848C210.577 334.988 187.992 312.403 160.132 312.403C132.272 312.403 109.687 334.988 109.687 362.848C109.687 390.709 132.272 413.294 160.132 413.294Z" fill="#191847"/>
<path d="M163.387 309.148H156.877V416.548H163.387V309.148Z" fill="#191847"/>
<path d="M199.254 326.027L196.953 323.726C196.317 323.091 195.287 323.091 194.651 323.726L121.01 397.368C120.374 398.003 120.374 399.034 121.01 399.669L123.311 401.97C123.946 402.606 124.977 402.606 125.612 401.97L199.254 328.329C199.89 327.693 199.89 326.663 199.254 326.027Z" fill="#191847"/>
<path d="M213.832 364.476V361.221C213.832 360.322 213.103 359.594 212.205 359.594H108.059C107.161 359.594 106.432 360.322 106.432 361.221V364.476C106.432 365.374 107.161 366.103 108.059 366.103H212.205C213.103 366.103 213.832 365.374 213.832 364.476Z" fill="#191847"/>
<path d="M196.953 401.971L199.254 399.669C199.89 399.034 199.89 398.003 199.254 397.368L125.612 323.726C124.977 323.091 123.946 323.091 123.311 323.726L121.01 326.027C120.374 326.663 120.374 327.693 121.01 328.329L194.652 401.971C195.287 402.606 196.317 402.606 196.953 401.971Z" fill="#191847"/>
<path fill-rule="evenodd" clip-rule="evenodd" d="M232.084 249.172L261.015 242.013C266.163 237.63 271.105 234.548 275.841 232.767C277.247 232.606 279.632 233.032 276.985 236.58C274.338 240.128 271.717 244.028 272.694 245.732C273.672 247.437 276.654 246.538 277.754 249.192C278.488 250.961 273.483 251.653 262.739 251.268L240.87 264.491L232.084 249.172ZM139.703 264.736L156.339 263.498C148.526 313.027 144.475 338.957 144.186 341.287C143.534 346.529 148.934 354.009 151.428 358.061C146.839 361.185 145.213 351.083 139.454 355.161C134.198 358.883 130.939 365.132 122.974 360.693C121.995 360.147 120.568 357.914 122.419 355.935C127.032 351.004 133.378 342.51 133.905 339.837C134.624 336.193 136.557 311.159 139.703 264.736Z" fill="#997659"/>
<path fill-rule="evenodd" clip-rule="evenodd" d="M181.13 205.13L193.756 205.12C203.838 236.651 224.93 255.429 260.719 245.753L274.718 286.279C241.007 294.145 206.897 280.485 191.041 237.585C186.936 226.48 183.071 214.891 181.13 205.13Z" fill="#AFB9C5"/>
<path fill-rule="evenodd" clip-rule="evenodd" d="M166.798 203.567L186.494 207.128C194.622 245.007 210.007 268.362 221.214 295.795L170.942 299.799C172.299 309.478 173.986 319.404 175.939 329.58L138.298 332.578C135.305 278.203 144.395 235.227 165.566 203.651L166.785 203.554L166.798 203.567Z" fill="#C5CFD6"/>
<path fill-rule="evenodd" clip-rule="evenodd" d="M167.194 245.847C170.344 268.722 174.21 286.045 178.793 297.814L170.256 298.6C168.01 280.097 166.849 262.526 167.194 245.847L167.194 245.847Z" fill="black" fill-opacity="0.1"/>
<path fill-rule="evenodd" clip-rule="evenodd" d="M450.332 122.093C441.816 122.593 436.638 111.123 430.658 105.013C426.379 100.642 420.715 102.353 417.822 96.0507C410.548 80.2039 420.293 68.1779 435.647 67.2766C451.001 66.3752 463.13 75.7085 468.034 90.5215C472.939 105.334 465.686 121.191 450.332 122.093Z" fill="#191847"/>
<path fill-rule="evenodd" clip-rule="evenodd" d="M444.256 111.367C446.414 106.679 447.381 101.022 445.797 94.8238C441.235 76.9648 422.242 81.9469 420.194 91.1897C418.147 100.433 423.169 123.34 428.462 124.694C430.573 125.233 434.483 123.432 438.132 119.939L440.224 144.149L456.158 143.31L444.256 111.367Z" fill="#B28B67"/>
<path fill-rule="evenodd" clip-rule="evenodd" d="M437.352 100.71C437.931 100.279 438.636 100.012 439.426 99.966C441.958 99.8173 444.419 101.983 444.923 104.804C445.128 105.955 444.976 107.037 444.552 107.925C446.003 109.908 447.129 112.015 447.766 114.211C451.531 113.99 462.364 96.8988 445.94 82.3816C429.516 67.8644 413.64 90.8975 419.812 91.824C423.36 92.3567 430.909 95.6822 437.352 100.71Z" fill="#191847"/>
<path fill-rule="evenodd" clip-rule="evenodd" d="M467.386 220.058L436.303 327.166L421.683 407.585H407.01L421.657 220.058H467.386Z" fill="#784931"/>
<path fill-rule="evenodd" clip-rule="evenodd" d="M481.355 220.058C479.186 275.7 480.041 306.049 480.527 311.104C481.012 316.16 483.768 350.017 502.546 409.282H487.284C462.415 352.427 453.734 318.57 450.882 311.104C448.029 303.639 439.605 273.29 427.307 220.058H481.355Z" fill="#915B3C"/>
<path fill-rule="evenodd" clip-rule="evenodd" d="M468.053 220.058C459.968 256.914 445.984 315.746 426.102 396.554H404.64C403.055 313.613 409.798 259.023 421.476 220.058H468.053Z" fill="#2F3676"/>
<path fill-rule="evenodd" clip-rule="evenodd" d="M481.463 220.058C479.339 275.7 484.844 330.518 501.895 397.42H478.996C454.082 341.414 436.225 286.867 424.021 220.058H481.463Z" fill="#5C63AB"/>
<path fill-rule="evenodd" clip-rule="evenodd" d="M504.721 420.313L503.879 406.736C498.949 408.178 492.773 407.612 485.353 405.039C477.374 410.691 467.33 414.55 455.22 416.617C454.296 416.774 453.675 417.651 453.833 418.575C453.843 418.635 453.856 418.694 453.873 418.752L455.037 422.858H485.353H503.037L504.721 420.313Z" fill="#191847"/>
<path fill-rule="evenodd" clip-rule="evenodd" d="M424.959 420.313L424.117 406.736C419.186 408.178 413.011 407.612 405.591 405.039C397.612 410.691 387.567 414.55 375.458 416.617C374.534 416.774 373.913 417.651 374.07 418.575C374.081 418.635 374.094 418.694 374.11 418.752L375.275 422.858H405.591H423.275L424.959 420.313Z" fill="#191847"/>
<path fill-rule="evenodd" clip-rule="evenodd" d="M396.025 208.904L374.155 233.332C367.505 236.282 362.119 239.618 357.999 243.343C357.102 244.615 356.2 247.085 360.767 246.15C365.335 245.216 370.2 244.464 371.188 246.165C372.176 247.866 369.779 250.311 371.543 252.556C372.718 254.053 376.017 249.581 381.439 239.141L404.902 224.187L396.025 208.904ZM496.219 198.125L479.163 200.166C497.149 237.057 506.791 256.621 508.086 258.856C511.002 263.884 508.563 272.334 507.691 276.825C513.808 278.975 511.194 268.704 518.938 271.557C526.006 274.16 532.069 279.654 538.48 273.68C539.268 272.945 539.803 270.46 537.029 268.885C530.116 264.961 519.876 257.881 518.186 255.357C515.882 251.915 508.559 232.838 496.219 198.125Z" fill="#915B3C"/>
<path fill-rule="evenodd" clip-rule="evenodd" d="M434.353 133.11L427.227 132.595C406.56 159.477 405.348 206.802 379.013 234.754L388.571 244.08C441.294 230.679 443.437 172.88 434.353 133.11Z" fill="#E87613"/>
<path fill-rule="evenodd" clip-rule="evenodd" d="M484.56 222.415C457.656 225.497 437.867 227.765 425.191 229.217C422.478 229.528 422.132 225.104 422.092 222.856C421.625 196.91 433.912 167.477 426.805 131.283L443.343 126.328C462.492 150.095 473.528 180.794 484.56 222.415Z" fill="#DDE3E9"/>
<path fill-rule="evenodd" clip-rule="evenodd" d="M470.63 147.471C472.931 146.395 474.516 144.321 475.383 141.25C479.122 128.012 475.547 121.373 468.502 119.869C461.457 118.365 456.478 123.714 445.956 124.929C445.384 124.995 444.868 125.096 444.407 125.232L439.181 126.182C435.258 185.746 438.583 224.799 449.158 243.343L495.289 238.015C499.417 244.859 503.206 250.58 506.656 255.18L519.226 253.728C512.039 210.624 495.84 175.205 470.63 147.471Z" fill="#FF9B21"/>
<path fill-rule="evenodd" clip-rule="evenodd" d="M478.246 208.268C479.462 222.115 479.028 232.316 476.945 238.87L494.208 236.887C489.353 228.879 484.032 219.34 478.246 208.268L478.246 208.268Z" fill="black" fill-opacity="0.1"/>
</svg>
