<?xml version="1.0" encoding="UTF-8"?><svg id="Layer_2" xmlns="http://www.w3.org/2000/svg" viewBox="0 0 1310 1310.5"><defs><style>.cls-1{fill:#fff;}</style></defs><g id="Layer_1-2"><path class="cls-1" d="M5,914.11h133.42c56.98,0,102.84,17.97,137.59,53.9,34.74,35.94,52.12,83.29,52.12,142.06s-17.92,106.22-53.76,141.76c-35.84,35.54-83.54,53.31-143.1,53.31H5v-391.03ZM89.88,987.97v241.53h33.36c34.55,0,62.94-9.43,85.17-28.29,22.23-18.86,33.36-50.33,33.36-94.41,0-25.61-5.36-48.29-16.08-68.05-10.72-19.75-26.26-33.15-46.61-40.2-20.35-7.05-39.76-10.57-58.22-10.57h-30.97Z"/><path class="cls-1" d="M676.64,934.96v95.3c-42.29-25.41-79.32-38.12-111.08-38.12s-57.18,10.92-76.24,32.76c-19.06,21.84-28.59,51.22-28.59,88.15,0,34.95,10.02,62.89,30.08,83.83,20.05,20.95,46.85,31.42,80.41,31.42,29.38,0,64.52-11.81,105.43-35.44v94.7c-45.86,15.29-84.09,22.93-114.66,22.93-52.61,0-97.29-19.31-134.01-57.92-36.73-38.61-55.1-85.72-55.1-141.31s18.71-104.48,56.14-143.69c37.42-39.21,82.94-58.82,136.55-58.82,34.55,0,71.57,8.74,111.08,26.21Z"/><path class="cls-1" d="M707.79,914.11h93.34l72.14,121.23,73.19-121.23h93.68l-124.49,208.17v182.86h-83.39v-182.86l-124.49-208.17Z"/><path class="cls-1" d="M1084.92,914.11h220.08v75.64h-136.4v79.81h136.4v76.24h-135.8v159.33h-84.28v-391.03Z"/><path class="cls-1" d="M1310,680.25c0-.54,0-1.07-.02-1.61-.02-15.79-.58-31.84-1.68-47.69-11.8-171.11-84.98-330.1-206.04-447.67C980.55,65.09,821.71,0,655,0c-88.32,0-174.02,17.95-254.7,53.35-77.91,34.18-147.9,83.12-208.03,145.46-60.11,62.32-107.35,134.9-140.4,215.72C17.67,498.16.22,587.03.02,678.64c-.02.54-.02,1.07-.02,1.61v200.92h5s683.05,0,683.05,0c-2.55-13.31-4.07-29.87-4.73-38.34-.27-3.48-1.69-6.74-4-9.19l-.07-.07c-2.32-2.43-2.58-17.69-2.58-17.69l-1.5-11.16-.42-6.2c-.49-7.27-7.68-11.61-13.67-8.27-16.63,9.3-41.94,16.42-41.94,16.42,0,0-3.57,3.63-10.99,7.63-4.32,2.33-7.7-1.48-7.91-5.02-.39-6.57.74-10.06,4.1-11.98,3.36-1.9,8.38.47,8.38.47,10.56-8.47,20.04-16.35,34.54-24.78,8.42-4.9,16.57-9.09,24.28-12.68.51-.13,2.81-2.61,7.4-7.19,2.55-2.54,4.67-3.09,4.09-4.37-2.1-4.59-2.62-4.9-5.23-10.55-21.34-42,41.61-43.6,36.43-4.1.31,7.03-2.66,8.28.45,11.92,3.32,3.89,12.36,1.8,17.39,2.76,5.9,1.12,11.39,3.41,19.08,2.5,3.71-.44,6.52-1.36,7.66-1.75,4.06-1.38,8.1-3.66,14.31-9.19,9.43-8.39,15.29-16.61,17.1-19.12,13.97-19.4,17.93-18.16,26.05-31.41,22.15-36.15,18.27-64.58,36.37-71.36,5.87-2.2,11.15-1.08,11.15-1.08,0,0-.32-3.66-1.66-6.99-1.35-3.31.53-11.4.53-11.4l-.44-6.94c-.24-3.82.62-7.66,2.58-10.91,5.5-9.13,12.56-14.57,25.3-10.86.25.07.5.15.74.23,10.52,3.3,13.76,9.59,13.76,16.06s-3.06,12.78-5.46,16.89c-1.53,2.63-2.79,4.28-2.81,4.3l-.36,8.65s19.37,4.23,30.95,11.12c11.58,6.9,31.61,117.88,31.61,117.88l1.17,6.21c.63,3.32,2.03,6.44,4.07,9.08l9.49,12.23c1.26,1.62,3.55,1.86,5.11.54l14.95-12.71s1.97-2.59,5.37-4.47c1.7-.93,3.69-1.63,5.25-2.1,1.56-.47,2.7-.7,2.7-.71,0-.02-5.71-9.33-6.65-18.03-.93-8.74,6.05-24.28,25.34-19.18,16.8,4.46,10.19,31.95,9.65,34.37-.65,2.94.5,5.4,3,5.3l20.53.34-.02-20.65c-6.32-5.21.64-14.87.64-14.87l-8.02-22.27c-1.48-6.59-.16-30.62-.16-30.62-1.14-11.89,8.67-37.64,13.76-50.02,1.52-3.71,3.77-7.03,6.59-9.76.57-.56,1.16-1.09,1.78-1.59l10.38-8.47-.2-1.58-1.5-1.69-3.37-1.41c-1.46-.61-2.7-1.7-3.51-3.09l-2.86-4.9-.71-.41-1.7-.98c-.93-.53-1.73-1.27-2.36-2.16l-4.48-6.36c-1.15-1.63-1.64-3.66-1.45-5.66.96-10.08,4.38-16.85,9.98-21.56.93-.79,1.92-1.51,2.96-2.18,1.9-1.22,4.03-2.04,6.29-2.52v-172.97h-26.05l-21.96-172.38-17.28,172.38h-22.98v229.32l-14.99,136.72-5.04-153.76h-42.59v-161.56h-41.27v-51.19h-10.83v51.19h-9.85v-51.19h-10.83v51.19h-38.73v238.44h-26.33v45.01h-15.51v-70.57s-37.15,0-37.15,0v-120.03h-57.31v166.04h-24.77v-219h-156.43v296.14h-12.66l-.92-135.99-119.5-.31v115.89c-5.26-1.55-10.4-3.2-15.3-4.92-7.53-2.61-15.16-5.57-22.69-8.77-7.64-3.28-15.27-6.9-22.71-10.76-2.79-1.42-5.75-3-9.07-4.85-4.55-2.53-9.12-5.21-13.6-7.98-7.76-4.79-15.39-9.93-22.69-15.28-5.34-3.92-10.52-7.94-15.42-11.99-.62-.49-1.23-1.01-1.87-1.55-1.66-1.37-3.43-2.88-5.41-4.61-7.78-6.77-15.41-14.04-22.68-21.59-7.99-8.31-15.63-17.09-22.7-26.09-9.38-11.89-18.02-24.41-25.68-37.21-.9-1.5-1.74-2.93-2.54-4.32-1.15-1.97-2.19-3.83-3.06-5.39l-2.49-4.49-2.3,4.59c-.76,1.53-1.62,3.16-2.54,4.91l-.22.43c-.28.51-.56,1.03-.84,1.55-12.91,24.02-36.09,59.53-73.21,92.31-.56.51-1.16,1.02-1.77,1.54-15.7,13.68-32.81,25.91-50.85,36.37-6.02,3.49-11.98,6.7-17.96,9.69v-38.21c0-.46,0-.9.01-1.36v-.16C10.79,309.99,300.13,10,655,10s619.28,273.06,643.32,621.64c1.08,15.65,1.64,31.49,1.66,47.09v.17c.02.45.02.89.02,1.35v103.19h-27.46v-182.59h-40.2v-153.16h-48.01v135.33h-25.83v-142.29h-66.59v102.97c10.63,2.28,21.52,9.85,26.56,19.77.88,1.72,5.07,13.38,5.07,13.38l6.75,5.99,5.42,4.43c6.3-.14,20.51,4.81,28.95,7.98,4.4,1.66,8.12,4.77,10.55,8.91,1.03,1.75,2.08,3.62,3.16,5.61,2.21,4.12,4.49,8.76,6.69,13.89,1.92,4.48,7.18,17.33,9.78,30.22,5.12,25.45-.52,49.29-5.2,63.45-.55,1.66-.98,3.36-1.31,5.08l-2.81,14.39c-4.23,7.28-17.47,10.49-17.47,10.49-1.9,13.59-12.06,46.21-12.06,46.21l-.83,9.13-.85,19.82c2.01,12.01-7.37,50.87-11.73,58.69h162.43s5,0,5,0v-200.92ZM354.09,738.3c4.13,1.39,8.39,2.73,12.73,4,.25.07.51.14.76.22v20.67h-13.49v-24.88ZM331.22,729.73c5.82,2.4,11.66,4.64,17.46,6.69v26.76h-17.46v-33.46ZM317.12,851.94h-132.87l-10.78-21.75h-.17v-46.75h143.83v68.5ZM308.36,719.25c5.75,2.89,11.59,5.63,17.46,8.19v35.75h-17.46v-43.94ZM285.49,706.7c3.21,1.93,6.46,3.8,9.69,5.6,2.8,1.56,5.36,2.93,7.77,4.18v46.69h-17.46v-56.48ZM262.62,691.77c5.68,4.03,11.53,7.92,17.46,11.62v59.79h-17.46v-71.41ZM239.75,674.1c.34.28.67.56,1,.83.64.55,1.3,1.1,1.93,1.6,4.61,3.81,9.5,7.61,14.53,11.33v75.32h-17.46v-89.08ZM216.87,653.04c5.68,5.69,11.53,11.18,17.47,16.39v93.75h-17.47v-110.14ZM194.01,627.82c5.56,6.77,11.42,13.37,17.48,19.72v115.65h-17.48v-135.36ZM317.12,770.1v6.38h-143.83v-6.38h143.83ZM165.45,587.88c7.03,11.41,14.8,22.56,23.17,33.22v142.08h-15.33v-75.66h-3.78v-45.3h-1.16v-36.01h-2.9v-18.33ZM148.32,830.57l-11.03,21.36H10v-68.5h138.32v47.13ZM148.32,776.48H10v-6.38h138.32v6.38ZM130.57,624.7c10.83-14.36,19.25-27.84,25.59-39.22v20.73h-2.9v36.01h-1.16v45.3h-3.78v75.66h-17.75v-138.49ZM108.33,651.28c6.1-6.59,11.69-13.15,16.81-19.58v131.48h-16.81v-111.9ZM86.1,673.18c5.95-5.34,11.55-10.75,16.8-16.16v106.16h-16.8v-90ZM63.87,691.46c5.75-4.33,11.34-8.85,16.79-13.52v85.25h-16.79v-71.73ZM41.63,706.79c5.7-3.61,11.3-7.38,16.78-11.33v67.72h-16.78v-56.4ZM19.37,719.73c3.76-2,7.52-4.09,11.3-6.28,1.84-1.07,3.67-2.17,5.5-3.28v53.01h-16.8v-43.45ZM13.96,722.53v40.65h-3.96v-38.68c1.32-.65,2.64-1.3,3.96-1.97Z"/><path class="cls-1" d="M1004.58,831.59l-.12-.15c-2.01-2.52-3.29-5.57-3.68-8.81l-4.65-38.52-9.55,6.55c-6.8,5.95-16.12,0-16.12,0l-17-19.4-7.46-8.95.61-14.27c.16-3.68-.39-7.36-1.6-10.82l-21.6-61.82-1.35,29.3.95,13.26,5.63,21.32c.79,4.94.82,9.32-2.12,28.22-1.34,8.6-3.22,19.72-5.81,32.73-1.26,6-2.1,14.22-.28,23.5.42,2.15.95,4.15,1.53,6.01l5.77,51.43h78.54c-.52-4.95-.84-8.6-.84-8.6l-.87-40.98Z"/><path class="cls-1" d="M852.96,732.66l-1.38-59.65c-5.53,8.8-11.99,18.17-19.53,27.78-10.45,13.32-20.88,24.45-30.51,33.62-5.68,6.15-9.29,10.52-11.58,13.44-.88,1.12-2.9,3.74-5.99,6.88-1.9,1.94-3.56,3.41-4.67,4.36,0,0-15.59,8.01-20.1,10.37-2.32,1.22-8.25,3.26-13.45,4.94-5.37,1.75-8.92,7.24-8.61,13.3l.89,16.95s2.36,13.65.44,16.7c-1.91,3.07-.65,6.09-.65,6.09v6.34c.01,3.76-.28,7.53-.87,11.23-1.47,9.23-2.58,14.85-3.23,18.12-.39,2.08.37,9.84,1.27,18.02h129.7c-2.95-23.41-8.06-51.57-8.06-51.57-8.2-22.66-3.68-96.93-3.68-96.93Z"/><path class="cls-1" d="M1089.35,810.04l-2.45-64.63-1.46-8.74c-.42-2.49-.68-5.02-.78-7.55l-3.01-74.43s-9.58,18.27-10.18,24.11c-.06.54-.09,1.28-.09,2.17,0,8.64,2.51,31.67,2.51,31.67l.28,23.57c3.72,5.12,2.09,12.49,2.09,12.49l-6.25,23.34-18.85,11.68,2.34,37.35-2.88,6.08-1.52,11.29c2.68,5.07.34,15.97.34,15.97l-1.9,13.59-3.83,8.66.03,4.51h54.27l-5.96-42.49c-3.49-10.05-2.7-28.63-2.7-28.63Z"/></g></svg>