<svg width="25" height="25" viewBox="0 0 25 25" fill="none" xmlns="http://www.w3.org/2000/svg">
<path d="M22.625 8.375H2.375C2.07663 8.375 1.79048 8.25647 1.5795 8.0455C1.36853 7.83452 1.25 7.54837 1.25 7.25C1.25 6.95163 1.36853 6.66548 1.5795 6.4545C1.79048 6.24353 2.07663 6.125 2.375 6.125H22.625C22.9234 6.125 23.2095 6.24353 23.4205 6.4545C23.6315 6.66548 23.75 6.95163 23.75 7.25C23.75 7.54837 23.6315 7.83452 23.4205 8.0455C23.2095 8.25647 22.9234 8.375 22.625 8.375ZM18.875 13.625H6.125C5.82663 13.625 5.54048 13.5065 5.3295 13.2955C5.11853 13.0845 5 12.7984 5 12.5C5 12.2016 5.11853 11.9155 5.3295 11.7045C5.54048 11.4935 5.82663 11.375 6.125 11.375H18.875C19.1734 11.375 19.4595 11.4935 19.6705 11.7045C19.8815 11.9155 20 12.2016 20 12.5C20 12.7984 19.8815 13.0845 19.6705 13.2955C19.4595 13.5065 19.1734 13.625 18.875 13.625ZM14.375 18.875H10.625C10.3266 18.875 10.0405 18.7565 9.8295 18.5455C9.61853 18.3345 9.5 18.0484 9.5 17.75C9.5 17.4516 9.61853 17.1655 9.8295 16.9545C10.0405 16.7435 10.3266 16.625 10.625 16.625H14.375C14.6734 16.625 14.9595 16.7435 15.1705 16.9545C15.3815 17.1655 15.5 17.4516 15.5 17.75C15.5 18.0484 15.3815 18.3345 15.1705 18.5455C14.9595 18.7565 14.6734 18.875 14.375 18.875Z" fill="white"/>
</svg>
