<svg width="23" height="13" viewBox="0 0 23 13" fill="none" xmlns="http://www.w3.org/2000/svg">
<path d="M21.625 2.375H1.375C1.07663 2.375 0.790483 2.25647 0.579505 2.0455C0.368526 1.83452 0.25 1.54837 0.25 1.25C0.25 0.951631 0.368526 0.665483 0.579505 0.454505C0.790483 0.243526 1.07663 0.125 1.375 0.125H21.625C21.9234 0.125 22.2095 0.243526 22.4205 0.454505C22.6315 0.665483 22.75 0.951631 22.75 1.25C22.75 1.54837 22.6315 1.83452 22.4205 2.0455C22.2095 2.25647 21.9234 2.375 21.625 2.375ZM17.875 7.625H5.125C4.82663 7.625 4.54048 7.50647 4.3295 7.29549C4.11853 7.08452 4 6.79837 4 6.5C4 6.20163 4.11853 5.91548 4.3295 5.7045C4.54048 5.49353 4.82663 5.375 5.125 5.375H17.875C18.1734 5.375 18.4595 5.49353 18.6705 5.7045C18.8815 5.91548 19 6.20163 19 6.5C19 6.79837 18.8815 7.08452 18.6705 7.29549C18.4595 7.50647 18.1734 7.625 17.875 7.625ZM13.375 12.875H9.625C9.32663 12.875 9.04048 12.7565 8.8295 12.5455C8.61853 12.3345 8.5 12.0484 8.5 11.75C8.5 11.4516 8.61853 11.1655 8.8295 10.9545C9.04048 10.7435 9.32663 10.625 9.625 10.625H13.375C13.6734 10.625 13.9595 10.7435 14.1705 10.9545C14.3815 11.1655 14.5 11.4516 14.5 11.75C14.5 12.0484 14.3815 12.3345 14.1705 12.5455C13.9595 12.7565 13.6734 12.875 13.375 12.875Z" fill="#636363"/>
</svg>
