<svg width="54" height="54" viewBox="0 0 54 54" fill="none" xmlns="http://www.w3.org/2000/svg">
<path d="M53.535 50L44.345 40.81C47.875 36.5 50 30.995 50 25C50 11.215 38.785 0 25 0C11.215 0 0 11.215 0 25C0 38.7875 11.215 50 25 50C30.9925 50 36.5 47.875 40.81 44.345L50 53.535L53.535 50ZM5 25C5 13.9725 13.9725 5 25 5C36.0275 5 45 13.9725 45 25C45 36.0275 36.0275 45 25 45C13.9725 45 5 36.0275 5 25Z" fill="#276CE5"/>
<path d="M30 32.5H20V22.5L15 27.5V35C15 36.38 16.12 37.5 17.5 37.5H32.5C33.88 37.5 35 36.38 35 35V27.5L30 22.5V32.5Z" fill="#276CE5"/>
<path d="M26.7675 8.23251C25.79 7.25501 24.21 7.25501 23.2325 8.23251L8.23251 23.2325L11.7675 26.7675L25 13.535L38.2325 26.765L41.7675 23.23L26.7675 8.23251Z" fill="#276CE5"/>
</svg>
