<svg width="96" height="96" viewBox="0 0 96 96" fill="none" xmlns="http://www.w3.org/2000/svg">
<path fill-rule="evenodd" clip-rule="evenodd" d="M54.1197 19.3243L48.3 14.1L0 57.4588H14.49V96H38.64V67.0941H57.96V96H82.11V57.4588H96.6L86.0465 47.9849C82.4851 50.4535 78.1615 51.9 73.5 51.9C61.3221 51.9 51.45 42.0279 51.45 29.85C51.45 26.0382 52.4172 22.4523 54.1197 19.3243Z" fill="#276CE5"/>
<path d="M73.4822 12C63.629 12 55.65 19.9968 55.65 29.85C55.65 39.7032 63.629 47.7 73.4822 47.7C83.3532 47.7 91.35 39.7032 91.35 29.85C91.35 19.9968 83.3532 12 73.4822 12ZM73.5 44.13C65.6103 44.13 59.22 37.7397 59.22 29.85C59.22 21.9603 65.6103 15.57 73.5 15.57C81.3897 15.57 87.78 21.9603 87.78 29.85C87.78 37.7397 81.3897 44.13 73.5 44.13Z" fill="#276CE5"/>
<path d="M74.2875 20.4H71.4V31.4164L81.5063 37.2L82.95 34.9416L74.2875 30.0393V20.4Z" fill="#276CE5"/>
</svg>