<svg width="84" height="80" viewBox="0 0 84 80" fill="none" xmlns="http://www.w3.org/2000/svg">
<path d="M62.8334 79.6626H54.5C49.9042 79.6626 46.1667 75.9292 46.1667 71.3292V58.8292H37.8334V71.3292C37.8334 75.9292 34.0959 79.6626 29.5 79.6626H21.1667C16.5709 79.6626 12.8333 75.9292 12.8333 71.3292V46.3292H4.50001C2.81667 46.3292 1.29584 45.3167 0.650006 43.7584C0.0041717 42.2042 0.362505 40.4125 1.55417 39.2209L39.0542 1.72084C40.6834 0.0958402 43.3167 0.0958402 44.9459 1.72084L82.4459 39.2209C83.6376 40.4125 83.9959 42.2042 83.3501 43.7584C82.7042 45.3167 81.1834 46.3292 79.5001 46.3292H71.1667V71.3292C71.1667 75.9251 67.4292 79.6626 62.8334 79.6626ZM33.6667 50.4959H50.3334C52.6334 50.4959 54.5 52.3667 54.5 54.6625V71.3292H62.8375L62.8334 42.1625C62.8334 39.8667 64.7001 37.9959 67.0001 37.9959H69.4417L42 10.5583L14.5583 37.9959H17C19.3 37.9959 21.1667 39.8667 21.1667 42.1625V71.3292H29.5V54.6625C29.5 52.3625 31.3625 50.4959 33.6667 50.4959Z" fill="#276CE5"/>
</svg>
