<svg width="72" height="36" viewBox="0 0 72 36" fill="none" xmlns="http://www.w3.org/2000/svg">
  <g>
    <path d="M32 35.5L0.5 35.5L0.500001 0.5L32 0.500007C33.3807 0.500007 34.5 1.6193 34.5 3.00001L34.5 33C34.5 34.3807 33.3807 35.5 32 35.5Z" fill="white" stroke="#E0E0E0"/>
    <path d="M26.5 9L26.34 9.03L21 11.1L15 9L9.36 10.9C9.15 10.97 9 11.15 9 11.38V26.5C9 26.78 9.22 27 9.5 27L9.66 26.97L15 24.9L21 27L26.64 25.1C26.85 25.03 27 24.85 27 24.62V9.5C27 9.22 26.78 9 26.5 9ZM21 25L15 22.89V11L21 13.11V25Z" fill="#888888"/>
  </g>

  <g transform="translate(36)">
    <path d="M32 35.5L0.5 35.5L0.500001 0.5L32 0.500007C33.3807 0.500007 34.5 1.6193 34.5 3.00001L34.5 33C34.5 34.3807 33.3807 35.5 32 35.5Z" fill="#276CE5" stroke="#276CE5"/>
    <path d="M26.5 9L26.34 9.03L21 11.1L15 9L9.36 10.9C9.15 10.97 9 11.15 9 11.38V26.5C9 26.78 9.22 27 9.5 27L9.66 26.97L15 24.9L21 27L26.64 25.1C26.85 25.03 27 24.85 27 24.62V9.5C27 9.22 26.78 9 26.5 9ZM21 25L15 22.89V11L21 13.11V25Z" fill="white"/>
  </g>
</svg>
