<svg width="26" height="27" viewBox="0 0 26 27" fill="none" xmlns="http://www.w3.org/2000/svg">
<path d="M22.75 10.25H3.25C1.45488 10.25 0 11.7074 0 13.5V18.375C0 19.2723 0.727695 20 1.625 20H3.25V24.875C3.25 25.7723 3.9777 26.5 4.875 26.5H21.125C22.0223 26.5 22.75 25.7723 22.75 24.875V20H24.375C25.2723 20 26 19.2723 26 18.375V13.5C26 11.7074 24.5426 10.25 22.75 10.25ZM19.5 23.25H6.5V18.375H19.5V23.25ZM21.9375 15.5312C21.2646 15.5312 20.7187 14.9854 20.7187 14.3125C20.7187 13.6386 21.2646 13.0937 21.9375 13.0937C22.6104 13.0937 23.1562 13.6386 23.1562 14.3125C23.1562 14.9879 22.6129 15.5312 21.9375 15.5312ZM6.5 3.75H18.1543L19.5 5.09621V8.625H22.75V4.42285C22.75 3.99202 22.5786 3.57887 22.2739 3.27418L19.9761 0.976328C19.6727 0.671387 19.2562 0.5 18.8297 0.5H4.875C3.9782 0.5 3.25 1.2277 3.25 2.125V8.625H6.5V3.75Z" fill="#276CE5"/>
</svg>
