<svg width="26" height="26" viewBox="0 0 26 26" fill="none" xmlns="http://www.w3.org/2000/svg">
<path d="M22.75 9.75H3.25C1.45488 9.75 0 11.2074 0 13V17.875C0 18.7723 0.727695 19.5 1.625 19.5H3.25V24.375C3.25 25.2723 3.9777 26 4.875 26H21.125C22.0223 26 22.75 25.2723 22.75 24.375V19.5H24.375C25.2723 19.5 26 18.7723 26 17.875V13C26 11.2074 24.5426 9.75 22.75 9.75ZM19.5 22.75H6.5V17.875H19.5V22.75ZM21.9375 15.0312C21.2646 15.0312 20.7188 14.4854 20.7188 13.8125C20.7188 13.1386 21.2646 12.5938 21.9375 12.5938C22.6104 12.5938 23.1562 13.1386 23.1562 13.8125C23.1562 14.4879 22.6129 15.0312 21.9375 15.0312ZM6.5 3.25H18.1543L19.5 4.59621V8.125H22.75V3.92285C22.75 3.49202 22.5786 3.07887 22.2739 2.77418L19.9761 0.476328C19.6727 0.171387 19.2562 0 18.8297 0H4.875C3.9782 0 3.25 0.727695 3.25 1.625V8.125H6.5V3.25Z" fill="#276CE5"/>
</svg>
