<svg width="17" height="18" viewBox="0 0 17 18" fill="none" xmlns="http://www.w3.org/2000/svg">
<path d="M0 7.8001H7.2V0.600098H0V7.8001ZM2.4 3.0001H4.8V5.4001H2.4V3.0001ZM9.6 0.600098V7.8001H16.8V0.600098H9.6ZM14.4 5.4001H12V3.0001H14.4V5.4001ZM0 17.4001H7.2V10.2001H0V17.4001ZM2.4 12.6001H4.8V15.0001H2.4V12.6001ZM15.6 10.2001H16.8V15.0001H13.2V13.8001H12V17.4001H9.6V10.2001H13.2V11.4001H15.6V10.2001ZM15.6 16.2001H16.8V17.4001H15.6V16.2001ZM13.2 16.2001H14.4V17.4001H13.2V16.2001Z" fill="#276CE5"/>
</svg>
