<svg width="44" height="44" viewBox="0 0 44 44" fill="none" xmlns="http://www.w3.org/2000/svg">
<path d="M28.4166 20.1665C29.9354 20.1665 31.1666 18.9353 31.1666 17.4165C31.1666 15.8977 29.9354 14.6665 28.4166 14.6665C26.8978 14.6665 25.6666 15.8977 25.6666 17.4165C25.6666 18.9353 26.8978 20.1665 28.4166 20.1665Z" fill="#276CE5"/>
<path d="M15.5834 20.1665C17.1022 20.1665 18.3334 18.9353 18.3334 17.4165C18.3334 15.8977 17.1022 14.6665 15.5834 14.6665C14.0646 14.6665 12.8334 15.8977 12.8334 17.4165C12.8334 18.9353 14.0646 20.1665 15.5834 20.1665Z" fill="#276CE5"/>
<path d="M21.9816 3.6665C11.8616 3.6665 3.66663 11.8798 3.66663 21.9998C3.66663 32.1198 11.8616 40.3332 21.9816 40.3332C32.12 40.3332 40.3333 32.1198 40.3333 21.9998C40.3333 11.8798 32.12 3.6665 21.9816 3.6665ZM22 36.6665C13.8966 36.6665 7.33329 30.1032 7.33329 21.9998C7.33329 13.8965 13.8966 7.33317 22 7.33317C30.1033 7.33317 36.6666 13.8965 36.6666 21.9998C36.6666 30.1032 30.1033 36.6665 22 36.6665ZM12.8333 25.6665C14.2633 29.9565 17.82 32.9998 22 32.9998C26.18 32.9998 29.7366 29.9565 31.1666 25.6665H12.8333Z" fill="#276CE5"/>
</svg>
