<?xml version="1.0" encoding="UTF-8"?><svg id="Layer_1" xmlns="http://www.w3.org/2000/svg" viewBox="0 0 500 340.66"><defs><style>.cls-1{fill:#fff;}</style></defs><path class="cls-1" d="M109.87,61.66c7.04,0,14.21-5.22,17.1-13.43,2.86-8.1-.59-13.43-7.63-13.43s-14.25,5.33-17.1,13.43c-2.89,8.21.7,13.43,7.63,13.43Z"/><path class="cls-1" d="M500,0H70.21L5.2,184.37c-14.83,42.06,3.15,77.16,40.52,84.53l-25.3,71.75h293.04c58.17,0,122.18-47.32,142.69-105.49,11.64-33.02,6.81-62.54-10.19-81.9L500,0ZM241.86,20l-3.14,8.9c6.03-7.01,13.04-10.26,20.36-10.26,1.36,0,2.37.11,3.13.31l-6.46,18.32c-1.11-.11-1.81-.21-3.48-.21-8.37,0-17.32,2.51-21.93,15.59l-8.78,24.91h-17.79l20.3-57.57h17.79ZM160.75,20h17.79l-11.29,32.03c-2.21,6.28-1.62,9.94,5.39,9.94s11.58-3.45,14.39-11.41l10.78-30.56h17.79l-20.3,57.57h-17.79l2.33-6.59c-6.03,5.23-12.33,7.95-19.34,7.95-12.66,0-17.38-8.9-12.43-22.92l12.7-36ZM83.9,48.23c6.24-17.7,24.58-30.7,41.53-30.7s26.11,13.01,19.87,30.7c-6.24,17.7-24.37,30.7-41.53,30.7s-26.08-13.11-19.88-30.7ZM421.38,181.07c10.76,15.2,12.62,36.13,5.11,57.42-6.9,19.58-20.94,37.93-39.52,51.66-18.7,13.82-39.92,21.44-59.76,21.44H59.13l24.8-70.33h-9.31c-15.32,0-28.04-6.04-35.8-17.01-8.15-11.52-9.6-27.27-3.98-43.21l32.67-92.63h372.85l-28.97,82.15c3.8,2.98,7.16,6.49,10,10.51Z"/><path class="cls-1" d="M199.65,231.26l22.05-62.51h-39.07l24.8-70.33h-62.51l-24.8,70.33h-7.81l24.8-70.33h-62.51l-30.31,85.96c-9.12,25.85,4.5,46.89,30.35,46.89h23.44l-24.8,70.33h62.51l24.8-70.33h39.07Z"/><polygon class="cls-1" points="316.82 98.41 215.24 98.41 193.19 160.93 232.26 160.93 204.71 239.07 165.63 239.07 143.59 301.58 284.24 301.58 306.29 239.07 267.22 239.07 316.82 98.41"/><path class="cls-1" d="M374.07,168.74h-11.72l2.76-7.81h39.07l22.05-62.51h-101.59l-46.85,132.84h74.24c2.16,0,3.29,1.75,2.53,3.91-.76,2.15-3.13,3.91-5.28,3.91h-35.17l-22.05,62.51h35.17c36.62,0,76.93-29.8,89.84-66.42,12.92-36.62-6.37-66.42-43-66.42Z"/></svg>