<svg width="120" height="50" viewBox="0 0 120 50" fill="none" xmlns="http://www.w3.org/2000/svg">
<path d="M34.6489 25.825C31.9753 25.825 29.7992 23.679 29.7992 21.0424V0H23.0098V21.0437C23.0098 27.373 28.2309 32.522 34.6489 32.522H40.4684V49.7396H47.2579V25.8263H34.6489V25.825Z" fill="#FBB040"/>
<path d="M34.6481 23.9133H47.2571V0H40.4676V17.2176H38.5278V0H31.7383V21.0437C31.7383 22.6257 33.0439 23.9133 34.6481 23.9133Z" fill="#FBB040"/>
<path d="M49.1973 49.7383H55.9867V32.5208H65.686V25.8251H49.1973V49.7383Z" fill="#FBB040"/>
<path d="M55.9867 17.2176V0H49.1973V23.9133H65.686V17.2176H55.9867Z" fill="#FBB040"/>
<path d="M83.1425 34.4338V0H57.9258V6.69572H76.353V41.1295H92.8417V34.4338H83.1425Z" fill="#FBB040"/>
<path d="M74.4145 8.60876H57.9258V15.3045H67.625V34.4338H57.9258V41.1295H74.4145V8.60876Z" fill="#FBB040"/>
<path d="M92.8417 43.0426H57.9258V49.7383H92.8417V43.0426Z" fill="#FBB040"/>
<path d="M104.481 33.4773C104.481 34.0046 104.046 34.4338 103.511 34.4338H94.7819V41.1295H103.511C107.79 41.1295 111.271 37.6973 111.271 33.4773C111.271 29.2573 107.79 25.825 103.511 25.825H91.8721V6.69572H110.301V0H85.084V32.5207H103.513C104.047 32.5207 104.482 32.9499 104.482 33.4773H104.481Z" fill="#FBB040"/>
<path d="M103.512 17.2175H100.602V15.3045H110.301V8.60876H93.8125V23.9133H103.512C108.86 23.9133 113.211 28.2039 113.211 33.4786C113.211 38.7532 108.86 43.0439 103.512 43.0439H94.7824V49.7396H103.512C112.603 49.7396 120 42.4446 120 33.4786C120 24.5126 112.603 17.2175 103.512 17.2175Z" fill="#FBB040"/>
<path d="M14.0646 43.0648C14.0646 47.0624 10.9637 50 7.03229 50C3.10084 50 0 47.0375 0 43.0648C0 39.0921 3.14993 36.1296 7.03229 36.1296C10.9146 36.1296 14.0646 39.0673 14.0646 43.0648ZM4.19947 43.0648C4.19947 44.919 5.44538 46.0993 7.03229 46.0993C8.61919 46.0993 9.8651 44.919 9.8651 43.0648C9.8651 41.2106 8.6444 40.0304 7.03229 40.0304C5.42017 40.0304 4.19947 41.2342 4.19947 43.0648Z" fill="#F15A29"/>
<path d="M27.8855 36.6897V49.6938H23.8107V48.2047C22.8514 49.3863 21.6294 50.0013 20.0226 50.0013C17.1221 50.0013 15.3242 47.9914 15.3242 44.8235V36.691H19.399V43.9258C19.399 45.3443 19.8302 46.1713 21.437 46.1713C23.0438 46.1713 23.8107 45.3914 23.8107 43.5948V36.691H27.8855V36.6897Z" fill="#F15A29"/>
<path d="M38.4792 36.4528V40.5904C38.2152 40.5668 38.048 40.5433 37.6646 40.5433C35.7473 40.5433 33.9003 41.1112 33.9003 44.0658V49.6925H29.8242V36.6884H33.9003V38.6983C34.715 37.1136 36.0577 36.3809 37.7362 36.3809C38.048 36.3809 38.2882 36.4044 38.4792 36.4515V36.4528Z" fill="#F15A29"/>
</svg>
